<svg height="512" viewBox="0 0 512 512" width="512" xmlns="http://www.w3.org/2000/svg"><g id="Solid"><path d="m152 144h64v88h-64z"/><path d="m232 144h48v88h-48z"/><path d="m240 288a8 8 0 0 1 3.578.845l12.422 6.211 12.422-6.211a8 8 0 0 1 7.156 0l4.422 2.211v-43.056h-48v43.056l4.422-2.211a8 8 0 0 1 3.578-.845z"/><path d="m296 144h64v88h-64z"/><path d="m296 304a8 8 0 0 1 -11.578 7.155l-12.422-6.211-12.422 6.211a8 8 0 0 1 -7.156 0l-12.422-6.211-12.422 6.211a8 8 0 0 1 -11.578-7.155v-56h-64v120h208v-120h-64zm-16 48h-16v-16h16zm48-16h16v16h-16zm-16 16h-16v-16h16z"/><path d="m256 24a231.888 231.888 0 0 0 -200.377 115.011l-18.023-9.127 11.56 63.453 56.124-29.181-21.042-10.656a199.883 199.883 0 0 1 171.758-97.5c110.457 0 200 89.543 200 200a201.705 201.705 0 0 1 -1.9 27.6l31.695 4.417a234.05 234.05 0 0 0 2.205-32.017c0-128.13-103.87-232-232-232z"/><path d="m460.454 314.3-52.454 35.109 20.593 7.687a199.9 199.9 0 0 1 -172.593 98.904c-110.457 0-200-89.543-200-200a201.705 201.705 0 0 1 1.905-27.6l-31.695-4.421a233.892 233.892 0 0 0 -2.21 32.021c0 128.13 103.87 232 232 232a231.924 231.924 0 0 0 202.967-119.566l20.268 7.566z"/></g></svg>