<?xml version="1.0" encoding="utf-8"?>
<!-- Generator: Adobe Illustrator 17.0.0, SVG Export Plug-In . SVG Version: 6.00 Build 0)  -->
<!DOCTYPE svg PUBLIC "-//W3C//DTD SVG 1.1//EN" "http://www.w3.org/Graphics/SVG/1.1/DTD/svg11.dtd">
<svg version="1.1" id="Calque_1" xmlns="http://www.w3.org/2000/svg" xmlns:xlink="http://www.w3.org/1999/xlink" x="0px" y="0px"
	 width="960px" height="560px" viewBox="0 0 960 560" enable-background="new 0 0 960 560" xml:space="preserve">
<path fill="#12100B" d="M282.121,216.429c-0.533,1.009-1.304,1.499-2.306,1.499c-0.771,0-1.758-0.533-2.976-1.629
	c-1.211-1.095-2.854-2.306-4.929-3.632c-2.075-1.326-4.663-2.551-7.776-3.675c-3.106-1.124-6.94-1.686-11.501-1.686
	s-8.576,0.649-12.035,1.946c-3.466,1.297-6.371,3.07-8.713,5.318c-2.335,2.248-4.115,4.843-5.326,7.797
	c-1.218,2.955-1.823,6.053-1.823,9.296c0,4.252,0.901,7.754,2.702,10.536c1.802,2.767,4.187,5.131,7.142,7.077
	c2.955,1.96,6.313,3.589,10.067,4.915c3.755,1.34,7.61,2.652,11.574,3.949c3.956,1.297,7.812,2.724,11.566,4.295
	c3.755,1.557,7.113,3.531,10.067,5.88c2.955,2.364,5.333,5.275,7.142,8.734c1.802,3.445,2.702,7.74,2.702,12.885
	c0,5.246-0.901,10.19-2.702,14.831c-1.802,4.627-4.41,8.662-7.833,12.078c-3.43,3.43-7.617,6.125-12.575,8.1
	c-4.958,1.989-10.63,2.969-17.007,2.969c-8.266,0-15.379-1.456-21.338-4.382c-5.96-2.926-11.184-6.918-15.674-11.992l2.479-3.906
	c0.706-0.879,1.535-1.326,2.479-1.326c0.533,0,1.211,0.36,2.039,1.067c0.829,0.706,1.83,1.585,3.02,2.609
	c1.182,1.038,2.602,2.162,4.252,3.373c1.657,1.211,3.574,2.32,5.765,3.358c2.184,1.038,4.699,1.902,7.538,2.609
	c2.839,0.706,6.061,1.067,9.664,1.067c4.965,0,9.404-0.749,13.303-2.263c3.899-1.499,7.199-3.546,9.887-6.154
	c2.688-2.594,4.742-5.679,6.162-9.253c1.42-3.56,2.133-7.394,2.133-11.458c0-4.439-0.908-8.071-2.71-10.939
	c-1.802-2.868-4.18-5.261-7.142-7.178c-2.955-1.917-6.306-3.517-10.06-4.828c-3.755-1.297-7.61-2.565-11.574-3.805
	c-3.964-1.24-7.819-2.623-11.574-4.165c-3.755-1.528-7.106-3.488-10.06-5.88c-2.962-2.393-5.34-5.376-7.142-8.95
	c-1.802-3.56-2.702-8.042-2.702-13.418c0-4.18,0.793-8.23,2.393-12.121c1.6-3.906,3.928-7.336,7.005-10.32
	c3.077-2.983,6.875-5.376,11.393-7.178c4.526-1.802,9.685-2.695,15.479-2.695c6.5,0,12.337,1.038,17.512,3.099
	c5.174,2.061,9.88,5.217,14.139,9.469L282.121,216.429z"/>
<path fill="#12100B" d="M342.957,236.968c4.958,0,9.549,0.865,13.764,2.58c4.223,1.701,7.884,4.194,10.983,7.48
	c3.099,3.272,5.52,7.307,7.264,12.078c1.737,4.785,2.609,10.276,2.609,16.474c0,1.297-0.187,2.191-0.577,2.666
	c-0.382,0.461-0.987,0.706-1.809,0.706h-63.583v1.672c0,6.616,0.764,12.438,2.299,17.454s3.719,9.224,6.558,12.611
	c2.832,3.401,6.255,5.953,10.269,7.668s8.504,2.565,13.462,2.565c4.425,0,8.266-0.49,11.509-1.456
	c3.25-0.98,5.981-2.075,8.194-3.286c2.212-1.211,3.971-2.306,5.268-3.272c1.297-0.98,2.241-1.456,2.832-1.456
	c0.764,0,1.355,0.288,1.773,0.879l2.299,2.839c-1.412,1.758-3.286,3.416-5.621,4.958c-2.335,1.528-4.929,2.839-7.79,3.935
	c-2.868,1.095-5.938,1.96-9.21,2.609c-3.279,0.649-6.572,0.98-9.873,0.98c-6.025,0-11.516-1.052-16.474-3.142
	c-4.958-2.104-9.217-5.16-12.763-9.167c-3.553-4.021-6.298-8.936-8.237-14.744c-1.939-5.823-2.911-12.467-2.911-19.976
	c0-6.313,0.901-12.136,2.702-17.483c1.802-5.347,4.396-9.945,7.79-13.808c3.394-3.877,7.56-6.904,12.489-9.08
	C331.103,238.063,336.695,236.968,342.957,236.968z M343.087,243.266c-4.54,0-8.612,0.706-12.208,2.119
	c-3.596,1.412-6.702,3.459-9.325,6.111c-2.623,2.652-4.742,5.852-6.363,9.57c-1.621,3.719-2.702,7.869-3.229,12.482h57.998
	c0-4.727-0.649-8.965-1.939-12.712c-1.304-3.747-3.128-6.918-5.484-9.513s-5.189-4.598-8.489-5.981
	C350.748,243.958,347.094,243.266,343.087,243.266z"/>
<path fill="#12100B" d="M411.138,197.649v128.851h-8.41V197.649H411.138z"/>
<path fill="#12100B" d="M498.538,326.501c-1.773,0-2.868-0.822-3.279-2.479l-1.24-11.242c-2.421,2.364-4.828,4.482-7.221,6.371
	c-2.385,1.888-4.886,3.488-7.48,4.785c-2.602,1.297-5.405,2.292-8.41,2.969c-3.012,0.677-6.32,1.009-9.923,1.009
	c-3.005,0-5.931-0.432-8.763-1.326c-2.832-0.879-5.347-2.234-7.531-4.064c-2.184-1.83-3.935-4.18-5.268-7.048
	c-1.326-2.868-1.989-6.298-1.989-10.32c0-3.719,1.059-7.163,3.185-10.363c2.126-3.185,5.448-5.953,9.967-8.316
	c4.511-2.364,10.327-4.252,17.44-5.664c7.113-1.427,15.66-2.248,25.641-2.479v-9.21c0-8.158-1.758-14.427-5.268-18.823
	c-3.517-4.396-8.727-6.601-15.631-6.601c-4.252,0-7.869,0.591-10.853,1.773c-2.976,1.182-5.506,2.479-7.567,3.906
	c-2.068,1.412-3.747,2.71-5.052,3.891c-1.297,1.182-2.385,1.773-3.272,1.773c-1.182,0-2.068-0.533-2.659-1.6l-1.506-2.566
	c4.605-4.598,9.448-8.086,14.521-10.449c5.081-2.364,10.839-3.546,17.274-3.546c4.72,0,8.85,0.749,12.395,2.263
	c3.538,1.499,6.479,3.661,8.814,6.457c2.328,2.811,4.086,6.212,5.268,10.19c1.175,3.978,1.766,8.432,1.766,13.332v57.378H498.538z
	 M463.111,321.802c3.423,0,6.572-0.36,9.433-1.095c2.861-0.749,5.52-1.773,7.97-3.099c2.45-1.34,4.735-2.911,6.861-4.742
	c2.126-1.83,4.223-3.805,6.291-5.938v-22.931c-8.388,0.231-15.602,0.865-21.655,1.902c-6.053,1.038-11.04,2.436-14.961,4.209
	c-3.928,1.773-6.824,3.877-8.684,6.327c-1.859,2.45-2.789,5.246-2.789,8.374c0,2.955,0.49,5.506,1.463,7.653
	c0.973,2.162,2.256,3.935,3.855,5.318c1.593,1.384,3.452,2.407,5.578,3.056C458.6,321.485,460.812,321.802,463.111,321.802z"/>
<path fill="#12100B" d="M528.466,326.501v-88.106h4.605c1.535,0,2.414,0.735,2.652,2.205l0.8,12.755
	c1.708-2.421,3.538-4.627,5.491-6.644c1.946-2.003,4.028-3.733,6.241-5.174c2.212-1.441,4.576-2.566,7.084-3.373
	c2.508-0.793,5.153-1.196,7.927-1.196c6.435,0,11.566,1.874,15.407,5.635c3.834,3.747,6.435,8.95,7.79,15.624
	c1.059-3.661,2.551-6.817,4.468-9.469c1.917-2.666,4.108-4.857,6.587-6.601c2.472-1.744,5.167-3.041,8.086-3.891
	c2.919-0.865,5.909-1.297,8.979-1.297c4.36,0,8.28,0.735,11.761,2.176c3.474,1.441,6.435,3.589,8.878,6.414
	c2.45,2.839,4.317,6.327,5.621,10.449c1.29,4.137,1.939,8.864,1.939,14.168v56.326h-8.41v-56.326c0-8.619-1.859-15.177-5.578-19.702
	c-3.719-4.511-9.03-6.774-15.941-6.774c-3.07,0-6.01,0.562-8.813,1.686c-2.803,1.124-5.282,2.796-7.437,5.001
	c-2.155,2.22-3.863,4.972-5.131,8.287c-1.276,3.301-1.91,7.134-1.91,11.501v56.326h-8.41v-56.326c0-8.547-1.715-15.105-5.138-19.659
	c-3.423-4.54-8.41-6.817-14.961-6.817c-4.785,0-9.21,1.441-13.289,4.295c-4.072,2.868-7.704,6.832-10.889,11.919v66.588H528.466z"/>
<path fill="#12100B" d="M709.817,198.99c8.323,0,15.544,0.966,21.655,2.911c6.111,1.96,11.156,4.684,15.141,8.201
	c3.985,3.502,6.954,7.725,8.9,12.655s2.919,10.377,2.919,16.344c0,6.082-1.031,11.646-3.099,16.69
	c-2.068,5.045-5.131,9.383-9.21,13.015c-4.072,3.632-9.131,6.471-15.184,8.504c-6.053,2.032-13.094,3.056-21.122,3.056h-18.946
	v46.136h-20.726V198.99H709.817z M709.817,263.977c4.605,0,8.662-0.591,12.179-1.773c3.51-1.167,6.435-2.839,8.763-5.001
	c2.335-2.148,4.093-4.756,5.275-7.826c1.175-3.07,1.766-6.5,1.766-10.276c0-3.719-0.577-7.062-1.722-10.003
	c-1.153-2.955-2.883-5.462-5.181-7.538c-2.306-2.061-5.21-3.646-8.727-4.727c-3.51-1.095-7.624-1.643-12.352-1.643h-18.946v48.788
	H709.817z"/>
<path fill="#12100B" d="M769.774,248.757c10.212-9.513,22.369-14.269,36.479-14.269c5.196,0,9.815,0.85,13.858,2.522
	c4.043,1.686,7.437,4.064,10.183,7.134c2.746,3.07,4.843,6.716,6.291,10.939c1.441,4.223,2.169,8.893,2.169,14.038v57.378h-8.504
	c-1.83,0-3.214-0.274-4.158-0.836c-0.944-0.562-1.744-1.701-2.393-3.416l-1.859-7.351c-2.306,2.075-4.576,3.92-6.817,5.535
	c-2.248,1.629-4.562,2.998-6.954,4.122s-4.958,1.96-7.704,2.522c-2.746,0.562-5.772,0.836-9.073,0.836
	c-3.668,0-7.077-0.504-10.233-1.499c-3.156-1.009-5.888-2.522-8.187-4.569c-2.306-2.032-4.122-4.554-5.448-7.567
	s-1.996-6.558-1.996-10.622c0-3.488,0.93-6.875,2.789-10.19c1.866-3.301,4.929-6.27,9.21-8.893
	c4.281-2.623,9.923-4.799,16.914-6.515c6.997-1.715,15.631-2.681,25.907-2.926v-6.01c0-6.5-1.391-11.343-4.165-14.528
	c-2.774-3.185-6.846-4.785-12.222-4.785c-3.661,0-6.724,0.461-9.21,1.384c-2.479,0.908-4.634,1.902-6.464,2.955
	c-1.83,1.067-3.452,2.061-4.864,2.969c-1.42,0.922-2.926,1.369-4.518,1.369c-1.297,0-2.407-0.331-3.322-1.009
	c-0.915-0.677-1.665-1.528-2.256-2.522L769.774,248.757z M820.248,287.009c-6.788,0.231-12.518,0.778-17.18,1.629
	c-4.663,0.865-8.446,1.96-11.336,3.286c-2.897,1.326-4.972,2.911-6.241,4.727c-1.276,1.83-1.91,3.848-1.91,6.025
	c0,2.133,0.339,3.949,1.023,5.448c0.677,1.513,1.621,2.753,2.832,3.719c1.211,0.98,2.623,1.686,4.252,2.133
	c1.621,0.432,3.409,0.663,5.354,0.663c4.958,0,9.224-0.937,12.799-2.796c3.567-1.859,7.041-4.554,10.406-8.1V287.009z"/>
<path fill="#12100B" d="M938.73,236.175l-49.761,116.01c-0.656,1.355-1.434,2.421-2.349,3.185s-2.32,1.153-4.209,1.153H868.33
	l16.654-36.133l-36.839-84.215h16.56c1.593,0,2.818,0.375,3.675,1.11c0.85,0.735,1.484,1.614,1.902,2.609l21.518,51.281
	c0.526,1.47,1.016,2.926,1.456,4.382c0.447,1.441,0.872,2.926,1.29,4.468c0.468-1.542,0.944-3.041,1.412-4.511
	c0.476-1.485,1.002-2.955,1.593-4.439l20.639-51.18c0.411-1.067,1.103-1.946,2.076-2.652c0.973-0.706,2.054-1.067,3.236-1.067
	H938.73z"/>
<path fill="#06612D" d="M136.414,285.115c-1.241,7.06,3.456,13.797,10.515,15.071c0.834,0.147,1.668,0.213,2.485,0.202
	c6.115-0.079,11.51-4.471,12.633-10.71l0.884-4.906l7.265-40.39c1.272-7.08-3.434-13.848-10.511-15.123
	c-0.823-0.145-1.644-0.21-2.451-0.199c-0.025,0-0.05,0.012-0.075,0.013c-1.178,0.022-2.317,0.243-3.414,0.567
	c-0.262,0.076-0.518,0.165-0.773,0.257c-1.079,0.393-2.123,0.873-3.057,1.526c-0.561,0.238-1.115,0.512-1.651,0.821
	c-0.606,0.347-1.192,0.74-1.742,1.209l-20.567,17.605l-9.394,8.041l-18.654,15.968l-12.506,10.705l-1.781,1.524l-10.429,8.927
	l-12.448,10.656c-3.27,2.797-4.771,6.863-4.481,10.848c0.195,2.676,1.177,5.317,3.056,7.512c0.684,0.798,1.451,1.482,2.268,2.073
	c2.302,1.665,5.045,2.512,7.798,2.477c1.43-0.018,2.86-0.281,4.23-0.775c1.445-0.518,2.825-1.294,4.061-2.351l13.187-11.288
	l27.014-23.125l20.389-17.451l-1.847,10.264C136.414,285.081,136.416,285.097,136.414,285.115z"/>
<path fill="#CC1E33" d="M65.414,240.46l-1.951,12.042l5.986-5.059l13.297-11.24l5.214-4.407l8.074-6.823l19.87-16.796l9.194-7.772
	c1.932-1.636,4.207-2.574,6.541-2.909c4.296-0.618,8.802,0.887,11.81,4.447c0.089,0.104,0.138,0.225,0.222,0.332
	c2.394,3.021,3.277,6.785,2.654,10.333c-0.052,0.297-0.158,0.581-0.231,0.875c-0.636,2.565-2.015,4.969-4.185,6.807l-22.385,18.92
	l-37.328,31.553l-26.522,22.416c-0.772,0.654-1.607,1.175-2.469,1.62c-2.779,2.242-6.431,3.379-10.235,2.764
	c-7.098-1.152-11.92-7.837-10.768-14.935l7.505-46.332c0.008-0.053,0.018-0.107,0.027-0.16c0.078-0.444,0.239-0.855,0.362-1.282
	c0.107-0.375,0.177-0.766,0.318-1.125c0.168-0.434,0.407-0.828,0.62-1.238c0.176-0.34,0.318-0.699,0.522-1.019
	c0.249-0.391,0.559-0.732,0.845-1.093c0.232-0.293,0.437-0.61,0.694-0.882c0.326-0.345,0.707-0.634,1.068-0.942
	c0.272-0.233,0.518-0.493,0.808-0.703c0.387-0.281,0.819-0.493,1.235-0.73c0.309-0.176,0.596-0.387,0.919-0.539
	c0.454-0.212,0.943-0.347,1.423-0.508c0.317-0.106,0.619-0.251,0.945-0.332c0.553-0.139,1.131-0.187,1.703-0.251
	c0.277-0.03,0.544-0.106,0.826-0.12c0.861-0.037,1.739,0.009,2.623,0.153C61.743,226.677,66.563,233.362,65.414,240.46z"/>
</svg>
