<?xml version="1.0" encoding="utf-8"?>
<!-- Generator: Adobe Illustrator 17.0.0, SVG Export Plug-In . SVG Version: 6.00 Build 0)  -->
<!DOCTYPE svg PUBLIC "-//W3C//DTD SVG 1.1//EN" "http://www.w3.org/Graphics/SVG/1.1/DTD/svg11.dtd">
<svg version="1.1" id="Calque_1" xmlns="http://www.w3.org/2000/svg" xmlns:xlink="http://www.w3.org/1999/xlink" x="0px" y="0px"
	 width="960px" height="560px" viewBox="0 0 960 560" enable-background="new 0 0 960 560" xml:space="preserve">
<g>
	
		<linearGradient id="SVGID_1_" gradientUnits="userSpaceOnUse" x1="119.0595" y1="115.7793" x2="135.1535" y2="115.7793" gradientTransform="matrix(1 0 0 -1 302.4 740.16)">
		<stop  offset="0" style="stop-color:#FF636F"/>
		<stop  offset="1" style="stop-color:#FF3E71"/>
	</linearGradient>
	<circle fill="url(#SVGID_1_)" cx="429.506" cy="624.381" r="8.047"/>
	
		<linearGradient id="SVGID_2_" gradientUnits="userSpaceOnUse" x1="149.2715" y1="115.7793" x2="165.3655" y2="115.7793" gradientTransform="matrix(1 0 0 -1 302.4 740.16)">
		<stop  offset="0" style="stop-color:#FFC847"/>
		<stop  offset="0.4076" style="stop-color:#FFBB4A"/>
		<stop  offset="0.9945" style="stop-color:#FFA151"/>
	</linearGradient>
	<circle fill="url(#SVGID_2_)" cx="459.719" cy="624.381" r="8.047"/>
	
		<linearGradient id="SVGID_3_" gradientUnits="userSpaceOnUse" x1="179.4835" y1="115.7793" x2="195.5775" y2="115.7793" gradientTransform="matrix(1 0 0 -1 302.4 740.16)">
		<stop  offset="0" style="stop-color:#6297F5"/>
		<stop  offset="1" style="stop-color:#8D6EF7"/>
	</linearGradient>
	<circle fill="url(#SVGID_3_)" cx="489.93" cy="624.381" r="8.047"/>
	
		<linearGradient id="SVGID_4_" gradientUnits="userSpaceOnUse" x1="209.6945" y1="115.7793" x2="225.7885" y2="115.7793" gradientTransform="matrix(1 0 0 -1 302.4 740.16)">
		<stop  offset="0" style="stop-color:#FF44F4"/>
		<stop  offset="1" style="stop-color:#9F44F4"/>
	</linearGradient>
	<circle fill="url(#SVGID_4_)" cx="520.141" cy="624.381" r="8.047"/>
	
		<linearGradient id="SVGID_5_" gradientUnits="userSpaceOnUse" x1="239.9065" y1="115.7793" x2="256.0005" y2="115.7793" gradientTransform="matrix(1 0 0 -1 302.4 740.16)">
		<stop  offset="0" style="stop-color:#6BC6F1"/>
		<stop  offset="1" style="stop-color:#8A91F2"/>
	</linearGradient>
	<circle fill="url(#SVGID_5_)" cx="550.353" cy="624.381" r="8.047"/>
</g>
<g>
	<g>
		
			<image overflow="visible" opacity="0.15" enable-background="new    " width="714" height="22" xlink:href="FD706C00.png"  transform="matrix(0.9986 0 0 0.9545 129.9056 1086.3418)">
		</image>
		<g>
			<rect x="134.808" y="1092.473" fill="#FFFFFF" width="697.275" height="5.044"/>
		</g>
	</g>
	<g>
		
			<linearGradient id="SVGID_6_" gradientUnits="userSpaceOnUse" x1="-179.9105" y1="-355.7646" x2="-153.3865" y2="-355.7646" gradientTransform="matrix(1 0 0 -1 302.4 740.16)">
			<stop  offset="0" style="stop-color:#FF636F"/>
			<stop  offset="1" style="stop-color:#FF3E71"/>
		</linearGradient>
		<circle fill="url(#SVGID_6_)" cx="135.751" cy="1095.925" r="13.262"/>
	</g>
	<g>
		
			<linearGradient id="SVGID_7_" gradientUnits="userSpaceOnUse" x1="-3.8705" y1="-355.7646" x2="22.6535" y2="-355.7646" gradientTransform="matrix(1 0 0 -1 302.4 740.16)">
			<stop  offset="0" style="stop-color:#FFC847"/>
			<stop  offset="0.4076" style="stop-color:#FFBB4A"/>
			<stop  offset="0.9945" style="stop-color:#FFA151"/>
		</linearGradient>
		<circle fill="url(#SVGID_7_)" cx="311.792" cy="1095.925" r="13.262"/>
	</g>
	<g>
		
			<linearGradient id="SVGID_8_" gradientUnits="userSpaceOnUse" x1="172.1705" y1="-355.7646" x2="198.6945" y2="-355.7646" gradientTransform="matrix(1 0 0 -1 302.4 740.16)">
			<stop  offset="0" style="stop-color:#6297F5"/>
			<stop  offset="1" style="stop-color:#8D6EF7"/>
		</linearGradient>
		<circle fill="url(#SVGID_8_)" cx="487.832" cy="1095.925" r="13.262"/>
	</g>
	<g>
		
			<linearGradient id="SVGID_9_" gradientUnits="userSpaceOnUse" x1="348.2105" y1="-355.7646" x2="374.7346" y2="-355.7646" gradientTransform="matrix(1 0 0 -1 302.4 740.16)">
			<stop  offset="0" style="stop-color:#FF44F4"/>
			<stop  offset="1" style="stop-color:#9F44F4"/>
		</linearGradient>
		<circle fill="url(#SVGID_9_)" cx="663.872" cy="1095.925" r="13.262"/>
	</g>
	<g>
		
			<linearGradient id="SVGID_10_" gradientUnits="userSpaceOnUse" x1="524.2515" y1="-355.7646" x2="550.7755" y2="-355.7646" gradientTransform="matrix(1 0 0 -1 302.4 740.16)">
			<stop  offset="0" style="stop-color:#6BC6F1"/>
			<stop  offset="1" style="stop-color:#8A91F2"/>
		</linearGradient>
		<circle fill="url(#SVGID_10_)" cx="839.913" cy="1095.925" r="13.262"/>
	</g>
</g>
<g>
	<g opacity="0.4">
		
			<image overflow="visible" enable-background="new    " width="161" height="132" xlink:href="FD706C01.png"  transform="matrix(1 0 0 1 90.1575 746.5937)">
		</image>
	</g>
	
		<linearGradient id="SVGID_11_" gradientUnits="userSpaceOnUse" x1="-208.509" y1="4.1754" x2="-152.609" y2="4.1754" gradientTransform="matrix(1 -0.0069 -0.0069 -1 307.1974 742.3768)">
		<stop  offset="0" style="stop-color:#FF636F"/>
		<stop  offset="1" style="stop-color:#FF3E71"/>
	</linearGradient>
	<path fill="url(#SVGID_11_)" d="M126.299,694.08c-15.437,0.106-27.865,12.705-27.759,28.142
		c0.106,15.435,28.381,62.593,28.381,62.593s27.625-47.541,27.519-62.977C154.333,706.402,141.734,693.974,126.299,694.08z
		 M126.576,734.56c-7.397,0.051-13.435-5.906-13.486-13.302c-0.051-7.397,5.905-13.436,13.302-13.486
		c7.397-0.051,13.435,5.906,13.486,13.303C139.928,728.471,133.973,734.509,126.576,734.56z"/>
	
		<linearGradient id="SVGID_12_" gradientUnits="userSpaceOnUse" x1="-190.7988" y1="-35.2813" x2="-160.6531" y2="16.9324" gradientTransform="matrix(1 -0.0069 -0.0069 -1 307.1974 742.3768)">
		<stop  offset="0.1518" style="stop-color:#FFFFFF"/>
		<stop  offset="0.8912" style="stop-color:#FFFFFF;stop-opacity:0"/>
	</linearGradient>
	<path opacity="0.62" fill="url(#SVGID_12_)" enable-background="new    " d="M113.458,760.634
		c6.844,13.143,13.463,24.181,13.463,24.181s20.254-34.857,26.008-54.568C146.577,746.593,126.882,760.844,113.458,760.634z"/>
</g>
<g>
	<g opacity="0.4">
		
			<image overflow="visible" enable-background="new    " width="161" height="133" xlink:href="FD706C07.png"  transform="matrix(1 0 0 1 292.1575 880.5937)">
		</image>
	</g>
	
		<linearGradient id="SVGID_13_" gradientUnits="userSpaceOnUse" x1="-7.6415" y1="-131.5535" x2="48.2585" y2="-131.5535" gradientTransform="matrix(1 -0.0069 -0.0069 -1 307.1974 742.3768)">
		<stop  offset="0" style="stop-color:#FFC847"/>
		<stop  offset="0.4076" style="stop-color:#FFBB4A"/>
		<stop  offset="0.9945" style="stop-color:#FFA151"/>
	</linearGradient>
	<path fill="url(#SVGID_13_)" d="M328.103,828.423c-15.437,0.106-27.865,12.705-27.759,28.142
		c0.106,15.435,28.381,62.593,28.381,62.593s27.625-47.541,27.519-62.977C356.138,840.745,343.538,828.317,328.103,828.423z
		 M328.38,868.903c-7.397,0.051-13.435-5.906-13.486-13.302c-0.051-7.397,5.905-13.436,13.302-13.486
		c7.397-0.051,13.435,5.906,13.486,13.303C341.733,862.813,335.777,868.852,328.38,868.903z"/>
	
		<linearGradient id="SVGID_14_" gradientUnits="userSpaceOnUse" x1="10.0687" y1="-171.0103" x2="40.2143" y2="-118.7966" gradientTransform="matrix(1 -0.0069 -0.0069 -1 307.1974 742.3768)">
		<stop  offset="0.1518" style="stop-color:#FFFFFF"/>
		<stop  offset="0.8912" style="stop-color:#FFFFFF;stop-opacity:0"/>
	</linearGradient>
	<path opacity="0.62" fill="url(#SVGID_14_)" enable-background="new    " d="M315.262,894.977
		c6.844,13.143,13.463,24.181,13.463,24.181s20.254-34.857,26.008-54.568C348.382,880.936,328.686,895.186,315.262,894.977z"/>
</g>
<g>
	<g opacity="0.4">
		
			<image overflow="visible" enable-background="new    " width="160" height="133" xlink:href="FD706C02.png"  transform="matrix(1 0 0 1 444.1575 788.5937)">
		</image>
	</g>
	
		<linearGradient id="SVGID_15_" gradientUnits="userSpaceOnUse" x1="144.7154" y1="-40.8468" x2="200.6154" y2="-40.8468" gradientTransform="matrix(1 -0.0069 -0.0069 -1 307.1974 742.3768)">
		<stop  offset="0" style="stop-color:#6297F5"/>
		<stop  offset="1" style="stop-color:#8D6EF7"/>
	</linearGradient>
	<path fill="url(#SVGID_15_)" d="M479.833,736.665c-15.437,0.106-27.865,12.705-27.759,28.142
		c0.106,15.435,28.381,62.593,28.381,62.593s27.625-47.541,27.519-62.977C507.87,748.987,495.27,736.56,479.833,736.665z
		 M480.112,777.145c-7.397,0.051-13.435-5.906-13.486-13.302c-0.051-7.397,5.905-13.436,13.302-13.486
		c7.397-0.051,13.435,5.906,13.486,13.303C493.465,771.056,487.509,777.094,480.112,777.145z"/>
	
		<linearGradient id="SVGID_16_" gradientUnits="userSpaceOnUse" x1="162.4265" y1="-80.3036" x2="192.5722" y2="-28.0898" gradientTransform="matrix(1 -0.0069 -0.0069 -1 307.1974 742.3768)">
		<stop  offset="0.1518" style="stop-color:#FFFFFF"/>
		<stop  offset="0.8912" style="stop-color:#FFFFFF;stop-opacity:0"/>
	</linearGradient>
	<path opacity="0.62" fill="url(#SVGID_16_)" enable-background="new    " d="M466.993,803.219
		c6.844,13.143,13.463,24.181,13.463,24.181s20.254-34.857,26.008-54.568C500.113,789.178,480.418,803.429,466.993,803.219z"/>
</g>
<g>
	<g opacity="0.4">
		
			<image overflow="visible" enable-background="new    " width="161" height="133" xlink:href="FD706C03.png"  transform="matrix(1 0 0 1 814.1575 925.5937)">
		</image>
	</g>
	
		<linearGradient id="SVGID_17_" gradientUnits="userSpaceOnUse" x1="514.0142" y1="-180.3059" x2="569.9141" y2="-180.3059" gradientTransform="matrix(1 -0.0069 -0.0069 -1 307.1974 742.3768)">
		<stop  offset="0" style="stop-color:#6BC6F1"/>
		<stop  offset="1" style="stop-color:#8A91F2"/>
	</linearGradient>
	<path fill="url(#SVGID_17_)" d="M850.094,873.576c-15.437,0.106-27.865,12.705-27.759,28.142
		c0.106,15.435,28.381,62.593,28.381,62.593s27.625-47.541,27.519-62.977C878.129,885.897,865.53,873.47,850.094,873.576z
		 M850.372,914.055c-7.397,0.051-13.435-5.906-13.486-13.302c-0.051-7.397,5.905-13.436,13.302-13.486
		c7.397-0.051,13.435,5.906,13.486,13.303C863.725,907.966,857.769,914.005,850.372,914.055z"/>
	
		<linearGradient id="SVGID_18_" gradientUnits="userSpaceOnUse" x1="531.7253" y1="-219.7627" x2="561.871" y2="-167.549" gradientTransform="matrix(1 -0.0069 -0.0069 -1 307.1974 742.3768)">
		<stop  offset="0.1518" style="stop-color:#FFFFFF"/>
		<stop  offset="0.8912" style="stop-color:#FFFFFF;stop-opacity:0"/>
	</linearGradient>
	<path opacity="0.62" fill="url(#SVGID_18_)" enable-background="new    " d="M837.254,940.13
		c6.845,13.143,13.463,24.181,13.463,24.181s20.254-34.857,26.008-54.568C870.374,926.089,850.678,940.339,837.254,940.13z"/>
</g>
<g>
	<path fill="#DB8803" d="M336.79,259.161c-31.005-2.416-62.338-0.305-93.531-0.633c-13.228-0.164-25.118,5.769-15.221,17.801
		c21.061,25.4,18.153,55.983,26.572,84.056c7.998,26.596,8.42,48.525-4.503,71.696c-7.857,14.095-15.878,27.862-8.795,43.06
		c12.735,0.727,9.85-12.547,19.771-15.291c44.866-12.43,80.374,2.298,113.513,34.5c11.304,11.046,30.466,69.82,60.884,11.234
		c0.727-1.431,5.324-2.697,5.863-2.111c17.449,20.498,36.188,1.102,53.966,1.032c53.825-0.235,107.603-3.94,161.405-5.418
		c28.402-0.797,34.124-18.247,22.867-37.619c-11.07-18.927-12.477-38.604-14.705-58.093
		c-9.006-78.521-15.714-157.253-23.922-235.798c-5.629-54.552-6.098-54.482,47.305-60.157c1.008-0.117,1.618-3.635,2.674-6.145
		c-44.796-29.27-89.615-58.445-138.772-90.459c-2.556,54.435-2.556,54.435-50.987,54.435c-1.22,0-2.392,0-3.588,0
		c-77.442,0-77.864,0-77.677,78.38c0.023,19.208-0.704,35.227-22.984,42.239c-15.831,4.972-22.257,18.012-19.114,34.171
		C384.564,255.01,367.279,261.506,336.79,259.161z"/>
</g>
<g>
	<g opacity="0.4">
		
			<image overflow="visible" enable-background="new    " width="161" height="132" xlink:href="FD706C0E.png"  transform="matrix(0.5559 0 0 0.5559 605.2759 430.5)">
		</image>
	</g>
	<path d="M625.319,401.332c-8.581,0.059-15.49,7.063-15.431,15.644c0.059,8.58,15.776,34.794,15.776,34.794
		s15.356-26.427,15.297-35.008C640.904,408.181,633.9,401.273,625.319,401.332z M625.474,423.833
		c-4.112,0.028-7.468-3.283-7.497-7.394c-0.028-4.112,3.283-7.469,7.394-7.497c4.112-0.028,7.468,3.283,7.497,7.395
		C632.897,420.449,629.586,423.805,625.474,423.833z"/>
	<path opacity="0.62" enable-background="new    " d="M618.182,438.328c3.804,7.306,7.484,13.442,7.484,13.442
		s11.259-19.376,14.457-30.333C636.593,430.523,625.644,438.444,618.182,438.328z"/>
</g>
<g>
	<g opacity="0.4">
		
			<image overflow="visible" enable-background="new    " width="161" height="132" xlink:href="FD706C0F.png"  transform="matrix(0.5559 0 0 0.5559 579.0168 300.1686)">
		</image>
	</g>
	<path d="M599.06,271c-8.581,0.059-15.49,7.063-15.431,15.644c0.059,8.58,15.776,34.794,15.776,34.794s15.356-26.427,15.297-35.008
		C614.645,277.849,607.641,270.941,599.06,271z M599.215,293.502c-4.112,0.028-7.468-3.283-7.497-7.394
		c-0.028-4.112,3.283-7.469,7.394-7.497c4.112-0.028,7.468,3.283,7.497,7.395C606.637,290.117,603.327,293.474,599.215,293.502z"/>
	<path opacity="0.62" enable-background="new    " d="M591.923,307.997c3.804,7.306,7.484,13.442,7.484,13.442
		s11.259-19.376,14.457-30.333C610.333,300.191,599.385,308.113,591.923,307.997z"/>
</g>
<g>
	<g opacity="0.4">
		
			<image overflow="visible" enable-background="new    " width="161" height="132" xlink:href="FD706C04.png"  transform="matrix(0.5559 0 0 0.5559 460.5429 274.1153)">
		</image>
	</g>
	<path d="M480.586,244.947c-8.581,0.059-15.49,7.062-15.431,15.644c0.059,8.58,15.776,34.794,15.776,34.794
		s15.356-26.427,15.297-35.008C496.171,251.796,489.167,244.888,480.586,244.947z M480.741,267.449
		c-4.112,0.028-7.468-3.283-7.497-7.394c-0.028-4.112,3.283-7.469,7.394-7.497c4.112-0.028,7.468,3.283,7.497,7.395
		C488.164,264.064,484.853,267.42,480.741,267.449z"/>
	<path opacity="0.62" enable-background="new    " d="M473.449,281.943c3.804,7.306,7.484,13.442,7.484,13.442
		s11.259-19.376,14.457-30.333C491.86,274.138,480.911,282.059,473.449,281.943z"/>
</g>
<g>
	<g opacity="0.4">
		
			<image overflow="visible" enable-background="new    " width="161" height="132" xlink:href="FD706C05.png"  transform="matrix(0.5559 0 0 0.5559 323.7444 366.0254)">
		</image>
	</g>
	<path d="M343.788,336.857c-8.581,0.059-15.49,7.063-15.431,15.644c0.059,8.58,15.776,34.794,15.776,34.794
		s15.356-26.427,15.297-35.008C359.373,343.706,352.368,336.798,343.788,336.857z M343.942,359.359
		c-4.112,0.028-7.468-3.283-7.497-7.394c-0.028-4.112,3.283-7.469,7.394-7.497c4.112-0.028,7.468,3.283,7.497,7.395
		C351.365,355.974,348.054,359.33,343.942,359.359z"/>
	<path opacity="0.62" enable-background="new    " d="M336.65,373.853c3.804,7.306,7.484,13.442,7.484,13.442
		s11.259-19.376,14.457-30.333C355.061,366.048,344.112,373.969,336.65,373.853z"/>
</g>
<g>
	<g opacity="0.4">
		
			<image overflow="visible" enable-background="new    " width="161" height="132" xlink:href="A13F9C5F.png"  transform="matrix(0.5559 0 0 0.5559 529.8846 171.5703)">
		</image>
	</g>
	<path d="M549.928,142.402c-8.581,0.059-15.49,7.062-15.431,15.644c0.059,8.58,15.776,34.794,15.776,34.794
		s15.356-26.427,15.297-35.008C565.513,149.251,558.509,142.343,549.928,142.402z M550.083,164.904
		c-4.112,0.028-7.468-3.283-7.497-7.394c-0.028-4.112,3.283-7.469,7.394-7.497c4.112-0.028,7.468,3.283,7.497,7.395
		C557.505,161.519,554.194,164.875,550.083,164.904z"/>
	<path opacity="0.62" enable-background="new    " d="M542.791,179.398c3.804,7.306,7.484,13.442,7.484,13.442
		s11.259-19.376,14.457-30.333C561.201,171.593,550.253,179.514,542.791,179.398z"/>
</g>
<g>
	<g opacity="0.4">
		
			<image overflow="visible" enable-background="new    " width="161" height="132" xlink:href="A13F9C5D.png"  transform="matrix(0.5559 0 0 0.5559 452.8908 120.2978)">
		</image>
	</g>
	<path d="M472.934,91.13c-8.581,0.059-15.49,7.062-15.431,15.644c0.059,8.58,15.776,34.794,15.776,34.794
		s15.356-26.427,15.297-35.008C488.519,97.979,481.515,91.071,472.934,91.13z M473.089,113.631
		c-4.112,0.028-7.468-3.283-7.497-7.394c-0.028-4.112,3.283-7.469,7.394-7.497c4.112-0.028,7.468,3.283,7.497,7.395
		C480.511,110.246,477.201,113.603,473.089,113.631z"/>
	<path opacity="0.62" enable-background="new    " d="M465.797,128.126c3.804,7.306,7.484,13.442,7.484,13.442
		s11.259-19.376,14.457-30.333C484.207,120.321,473.259,128.242,465.797,128.126z"/>
</g>
<g>
	<g opacity="0.4">
		
			<image overflow="visible" enable-background="new    " width="161" height="132" xlink:href="A13F9C5B.png"  transform="matrix(0.5559 0 0 0.5559 479.866 404.4467)">
		</image>
	</g>
	<path d="M499.909,375.278c-8.581,0.059-15.49,7.062-15.431,15.644c0.059,8.58,15.776,34.794,15.776,34.794
		s15.356-26.427,15.297-35.008C515.494,382.127,508.49,375.22,499.909,375.278z M500.064,397.78
		c-4.112,0.028-7.468-3.283-7.497-7.394c-0.028-4.112,3.283-7.469,7.394-7.497c4.112-0.028,7.468,3.283,7.497,7.395
		C507.487,394.395,504.176,397.752,500.064,397.78z"/>
	<path opacity="0.62" enable-background="new    " d="M492.772,412.275c3.804,7.306,7.484,13.442,7.484,13.442
		s11.259-19.376,14.457-30.333C511.183,404.469,500.234,412.391,492.772,412.275z"/>
</g>
</svg>
