<svg id="outline" height="512" viewBox="0 0 512 512" width="512" xmlns="http://www.w3.org/2000/svg"><path d="m40 496h368a24.02718 24.02718 0 0 0 24-24v-264h-16v264a8.00917 8.00917 0 0 1 -8 8h-368a8.00917 8.00917 0 0 1 -8-8v-304h176v-16h-176v-24a8.00917 8.00917 0 0 1 8-8h168v-16h-168a24.02718 24.02718 0 0 0 -24 24v344a24.02718 24.02718 0 0 0 24 24z"/><circle cx="48" cy="136" r="8"/><circle cx="72" cy="136" r="8"/><circle cx="96" cy="136" r="8"/><path d="m216 336a7.99952 7.99952 0 0 0 7.79492-9.79883l-24-104a7.99968 7.99968 0 0 0 -7.79492-6.20117h-24v-8a24 24 0 0 0 -48 0v8h-24a7.99968 7.99968 0 0 0 -7.79492 6.20117l-24 104a7.99952 7.99952 0 0 0 7.79492 9.79883zm-80-128a8 8 0 0 1 16 0v8h-16zm-33.63574 24h17.63574v16h16v-16h16v16h16v-16h17.63574l20.30762 88h-123.88672z"/><path d="m248 224h24v16h-24z"/><path d="m288 224h80v16h-80z"/><path d="m248 256h64v16h-64z"/><path d="m328 256h24v16h-24z"/><path d="m248 288h48v16h-48z"/><path d="m312 288h56v16h-56z"/><path d="m96 416a24 24 0 1 0 -24-24 24.02718 24.02718 0 0 0 24 24zm0-32a8 8 0 1 1 -8 8 8.00917 8.00917 0 0 1 8-8z"/><path d="m136 368h40v16h-40z"/><path d="m192 368h48v16h-48z"/><path d="m136 400h80v16h-80z"/><path d="m232 400h40v16h-40z"/><path d="m400 416v-32a8.00008 8.00008 0 0 0 -8-8h-96a8.00008 8.00008 0 0 0 -8 8v32a8.00008 8.00008 0 0 0 8 8h96a8.00008 8.00008 0 0 0 8-8zm-96-24h32v16h-32zm80 16h-32v-16h32z"/><path d="m56 440h16v16h-16z"/><path d="m88 440h120v16h-120z"/><path d="m224 440h112v16h-112z"/><path d="m352 440h40v16h-40z"/><path d="m448 184v-112a8.00008 8.00008 0 0 0 -8-8h-208a8.00008 8.00008 0 0 0 -8 8v112a8.00008 8.00008 0 0 0 8 8h208a8.00008 8.00008 0 0 0 8-8zm-16-8h-192v-96h192z"/><path d="m488 16h-208a8.00008 8.00008 0 0 0 -8 8v24h16v-16h192v96h-16v16h24a8.00008 8.00008 0 0 0 8-8v-112a8.00008 8.00008 0 0 0 -8-8z"/><path d="m256 152a8.00917 8.00917 0 0 1 8 8 8.00008 8.00008 0 0 0 8 8h128a8.00008 8.00008 0 0 0 8-8 8.00917 8.00917 0 0 1 8-8 8.00008 8.00008 0 0 0 8-8v-32a8.00008 8.00008 0 0 0 -8-8 8.00917 8.00917 0 0 1 -8-8 8.00008 8.00008 0 0 0 -8-8h-128a8.00008 8.00008 0 0 0 -8 8 8.00917 8.00917 0 0 1 -8 8 8.00008 8.00008 0 0 0 -8 8v32a8.00008 8.00008 0 0 0 8 8zm8-33.37109a24.11694 24.11694 0 0 0 14.62891-14.62891h114.74218a24.11694 24.11694 0 0 0 14.62891 14.62891v18.74218a24.11694 24.11694 0 0 0 -14.62891 14.62891h-114.74218a24.11694 24.11694 0 0 0 -14.62891-14.62891z"/><circle cx="336" cy="128" r="16"/><path d="m288 120h16v16h-16z"/><path d="m368 120h16v16h-16z"/></svg>