<?xml version="1.0" encoding="utf-8"?>
<!-- Generator: Adobe Illustrator 17.0.0, SVG Export Plug-In . SVG Version: 6.00 Build 0)  -->
<!DOCTYPE svg PUBLIC "-//W3C//DTD SVG 1.1//EN" "http://www.w3.org/Graphics/SVG/1.1/DTD/svg11.dtd">
<svg version="1.1" id="Capa_1" xmlns="http://www.w3.org/2000/svg" xmlns:xlink="http://www.w3.org/1999/xlink" x="0px" y="0px"
	 width="841.89px" height="595.28px" viewBox="0 0 841.89 595.28" enable-background="new 0 0 841.89 595.28" xml:space="preserve">
<path fill="#FEC9A3" d="M703.451,595.28V427.351c0.01-15.275-5.761-29.997-16.143-41.195l-72.704-80.292
	c-7.658-8.455-18.534-13.278-29.945-13.268H531.93V595.28H703.451z"/>
<polygon fill="#F7B483" points="612.645,464.116 531.93,383.401 531.93,595.28 612.645,595.28 "/>
<path fill="#3077A6" d="M542.019,80.716H340.229c-22.288,0-40.358,18.07-40.358,40.358v423.758c0,22.288,18.07,40.358,40.358,40.358
	h201.789c22.288,0,40.358-18.07,40.358-40.358V121.074C582.376,98.786,564.306,80.716,542.019,80.716z"/>
<rect x="299.871" y="141.253" fill="#4398D1" width="282.506" height="383.401"/>
<polygon fill="#3E8FC9" points="299.871,454.027 299.871,524.653 582.376,524.653 582.376,171.521 "/>
<g>
	<path fill="#3077A6" d="M521.84,262.327c-4.631,0-8.666,3.158-9.787,7.648l-8.172,32.71H350.318c-5.569,0-10.09,4.52-10.09,10.09
		c0,0.817,0.101,1.645,0.302,2.442l20.179,80.716c1.12,4.49,5.155,7.648,9.787,7.648h121.074c5.569,0,10.09,4.52,10.09,10.09
		c0,5.569-4.52,10.09-10.09,10.09H360.408v20.179h131.164c16.718-0.06,30.219-13.661,30.157-30.379
		c-0.041-11.895-7.042-22.651-17.899-27.514l17.707-70.828l8.183-32.71h12.299v-20.179H521.84V262.327z M493.781,343.043H467.69
		l2.522-20.179h28.614L493.781,343.043z M414.72,343.043l-2.522-20.179h37.675l-2.522,20.179H414.72z M444.827,363.222
		l-2.522,20.179h-22.54l-2.522-20.179H444.827z M391.857,322.864l2.522,20.179h-26.09l-5.045-20.179H391.857z M373.333,363.222
		h23.569l2.522,20.179h-21.046L373.333,363.222z M462.645,383.401l2.522-20.179h23.569l-5.045,20.179H462.645z"/>
	<circle fill="#3077A6" cx="380.587" cy="474.206" r="20.179"/>
	<circle fill="#3077A6" cx="481.482" cy="474.206" r="20.179"/>
</g>
<path fill="#88B337" d="M431.035,282.506c1.997,0,3.945-0.585,5.599-1.695l30.269-20.179l-11.2-16.789l-14.58,9.716v-21.501h-20.178
	v21.501l-14.58-9.716l-11.2,16.789l30.269,20.179C427.09,281.921,429.037,282.506,431.035,282.506z"/>
<path fill="#FEC9A3" d="M642.914,474.206L542.15,365.047c-10.775-11.673-28.966-12.41-40.651-1.635
	c-0.293,0.263-0.576,0.535-0.848,0.817l0,0c-10.776,10.776-11.28,28.069-1.16,39.461l62.707,70.515l0,0
	c-12.168,36.514-0.727,76.75,28.846,101.389l21.602,19.685h30.269V474.206z"/>
<path fill="#F7B483" d="M632.824,464.116c-2.674,0-5.247-1.059-7.133-2.957l-50.448-50.448c-3.874-4.005-3.763-10.392,0.242-14.267
	c3.915-3.774,10.109-3.774,14.024,0l50.448,50.448c3.934,3.945,3.934,10.331,0,14.267
	C638.061,463.057,635.498,464.116,632.824,464.116z"/>
</svg>
