<svg height="480pt" viewBox="0 0 480 480" width="480pt" xmlns="http://www.w3.org/2000/svg"><path d="m336 72v-32c0-4.417969-3.582031-8-8-8h-48c-4.417969 0-8 3.582031-8 8v32c0 4.417969 3.582031 8 8 8h48c4.417969 0 8-3.582031 8-8zm-16-8h-32v-16h32zm0 0"/><path d="m288 96h16v16h-16zm0 0"/><path d="m320 96h16v16h-16zm0 0"/><path d="m352 96h16v16h-16zm0 0"/><path d="m384 96h16v16h-16zm0 0"/><path d="m416 96h16v16h-16zm0 0"/><path d="m288 128h64v16h-64zm0 0"/><path d="m368 128h64v16h-64zm0 0"/><path d="m456 0h-192c-13.253906 0-24 10.746094-24 24v128c0 13.253906 10.746094 24 24 24h192c13.253906 0 24-10.746094 24-24v-128c0-13.253906-10.746094-24-24-24zm8 152c0 4.417969-3.582031 8-8 8h-192c-4.417969 0-8-3.582031-8-8v-128c0-4.417969 3.582031-8 8-8h192c4.417969 0 8 3.582031 8 8zm0 0"/><path d="m281.832031 208.207031-136-32c-1.207031-.277343-2.457031-.277343-3.664062 0l-136 32c-3.617188.851563-6.17187525 4.078125-6.167969 7.792969v48c0 4.417969 3.582031 8 8 8h16v128c-4.417969 0-8 3.582031-8 8v24h-8c-4.417969 0-8 3.582031-8 8v32c0 4.417969 3.582031 8 8 8h272c4.417969 0 8-3.582031 8-8v-32c0-4.417969-3.582031-8-8-8h-8v-24c0-4.417969-3.582031-8-8-8v-128h16c4.417969 0 8-3.582031 8-8v-48c.003906-3.714844-2.550781-6.941406-6.167969-7.792969zm-241.832031 63.792969h16v128h-16zm176 0v128h-144v-128zm56 192h-256v-16h256zm-240-32v-16h224v16zm216-32h-16v-128h16zm24-144h-256v-33.664062l128-30.121094 128 30.121094zm0 0"/><path d="m120 224c0 13.253906 10.746094 24 24 24s24-10.746094 24-24-10.746094-24-24-24-24 10.746094-24 24zm32 0c0 4.417969-3.582031 8-8 8s-8-3.582031-8-8 3.582031-8 8-8 8 3.582031 8 8zm0 0"/><path d="m136 344h16c4.417969 0 8 3.582031 8 8s-3.582031 8-8 8h-16c-4.417969 0-8-3.582031-8-8h-16c0 13.253906 10.746094 24 24 24v8h16v-8c13.253906 0 24-10.746094 24-24s-10.746094-24-24-24h-16c-4.417969 0-8-3.582031-8-8s3.582031-8 8-8h16c4.417969 0 8 3.582031 8 8h16c0-13.253906-10.746094-24-24-24v-8h-16v8c-13.253906 0-24 10.746094-24 24s10.746094 24 24 24zm0 0"/><path d="m304 352h16v16h-16zm0 0"/><path d="m336 352h16v16h-16zm0 0"/><path d="m368 352h16v16h-16zm0 0"/><path d="m368 320h16v16h-16zm0 0"/><path d="m368 288h16v16h-16zm0 0"/><path d="m368 256h16v16h-16zm0 0"/><path d="m368 224h16v16h-16zm0 0"/><path d="m368 192h16v16h-16zm0 0"/><path d="m208 48h16v16h-16zm0 0"/><path d="m176 48h16v16h-16zm0 0"/><path d="m144 48h16v16h-16zm0 0"/><path d="m144 80h16v16h-16zm0 0"/><path d="m144 112h16v16h-16zm0 0"/><path d="m144 144h16v16h-16zm0 0"/><path d="m424 32c-4.210938.039062-8.332031 1.203125-11.945312 3.367188-3.644532-2.179688-7.808594-3.34375-12.054688-3.367188-13.253906 0-24 10.746094-24 24s10.746094 24 24 24c4.246094-.023438 8.410156-1.1875 12.054688-3.367188 3.613281 2.164063 7.734374 3.328126 11.945312 3.367188 13.253906 0 24-10.746094 24-24s-10.746094-24-24-24zm-24 32c-4.417969 0-8-3.582031-8-8s3.582031-8 8-8 8 3.582031 8 8-3.582031 8-8 8zm24 0c-.46875-.058594-.933594-.160156-1.382812-.304688 1.839843-4.964843 1.839843-10.425781 0-15.390624.449218-.144532.914062-.246094 1.382812-.304688 4.417969 0 8 3.582031 8 8s-3.582031 8-8 8zm0 0"/></svg>