<svg height="496pt" viewBox="0 0 496 496" width="496pt" xmlns="http://www.w3.org/2000/svg" xmlns:xlink="http://www.w3.org/1999/xlink"><linearGradient id="a" gradientUnits="userSpaceOnUse" x1="248" x2="248" y1="0" y2="496"><stop offset=".0051" stop-color="#f5cc3a"/><stop offset=".5187" stop-color="#eb5edc"/><stop offset=".8858" stop-color="#db5ec8"/></linearGradient><path d="m120 416v-16h16v16zm48 0v-16h-16v16zm32 0v-16h-16v16zm0-48h-200v16h200zm0-32h-112v16h112zm296-240c0 21.351562-7.097656 41.039062-18.929688 57 12.515626 30.128906 18.929688 62.046875 18.929688 95 0 136.753906-111.246094 248-248 248-69.238281 0-135.449219-29.152344-182.335938-80h-65.664062v-16h104v16h-15.878906c42.949218 40.839844 100.207031 64 159.878906 64 44.710938 0 86.480469-12.742188 121.945312-34.742188l-51.203124-51.203124c-1.917969-1.910157-4.308594-3.328126-6.917969-4.078126l-23.824219-6.800781v.824219c0 17.648438-14.351562 32-32 32h-40v-16h40c8.824219 0 16-7.175781 16-16v-5.390625l-6.207031-1.777344c-3.921875-1.136719-7.503907-3.238281-10.378907-6.113281l-36.101562-36.101562c-12.480469-12.480469-12.480469-32.777344 0-45.25l1.375-1.367188-22.6875-22.6875c-9.382812 4.304688-19.617188 6.6875-30 6.6875-39.703125 0-72-32.296875-72-72 0-16.097656 5.238281-31.34375 15.167969-44.113281l12.640625 9.816406c-7.730469 9.9375-11.808594 21.800781-11.808594 34.296875 0 30.871094 25.128906 56 56 56 6.046875 0 12.007812-1.089844 17.703125-2.984375l-10.390625-10.390625c-.898438-.898438-1.65625-1.914062-2.402344-2.9375-1.621094.207031-3.261718.3125-4.910156.3125-22.054688 0-40-17.945312-40-40s17.945312-40 40-40 40 17.945312 40 40c0 1.648438-.105469 3.289062-.304688 4.910156 1.015626.746094 2.03125 1.503906 2.9375 2.402344l10.390626 10.390625c1.886718-5.679687 2.976562-11.648437 2.976562-17.703125 0-30.871094-25.128906-56-56-56-12.503906 0-24.359375 4.078125-34.296875 11.808594l-9.816406-12.640625c12.769531-9.929688 28.015625-15.167969 44.113281-15.167969 39.703125 0 72 32.296875 72 72 0 10.398438-2.382812 20.632812-6.6875 30l.871094.871094c3.777344-8.480469 12.128906-14.429688 21.914062-14.773438.375-10.554687 7.300782-19.371094 16.847656-22.648437l-.664062-129.449219h-208.28125v272h8v16h-72v-16h16.078125c-10.664063-28.046875-16.078125-57.59375-16.078125-88 0-53.222656 16.648438-103.800781 48-146.511719v-69.488281c0-17.648438 14.351562-32 32-32h176.121094c.925781 0 1.800781.191406 2.703125.273438 29.128906 1.238281 57.367187 7.519531 84.175781 18.65625 15.960938-11.832032 35.648438-18.929688 57-18.929688 52.9375 0 96 43.0625 96 96zm-96-80c-44.113281 0-80 35.886719-80 80s35.886719 80 80 80 80-35.886719 80-80-35.886719-80-80-80zm-352 320v-205.335938c-20.894531 35.457032-32 75.488282-32 117.335938 0 30.519531 5.878906 60.078125 17.34375 88zm224.199219-288-.078125-16.089844c-.03125-7.847656-5.792969-14.34375-13.296875-15.636718-3.59375-.160157-7.199219-.273438-10.824219-.273438h-168c-8.824219 0-16 7.175781-16 16v16zm-104.199219 176c.03125 0 .0625-.015625.097656-.015625.511719-12.96875 10.917969-23.375 23.886719-23.886719 0-.035156.015625-.066406.015625-.097656 0-13.230469-10.769531-24-24-24s-24 10.769531-24 24 10.769531 24 24 24zm162.054688 158.742188 5.945312 5.945312 68.761719-68.757812c-2.570313-2.761719-4.546875-6.066407-5.59375-9.699219l-13.726563-48.046875c-.371094-1.296875-1.082031-2.496094-2.035156-3.457032l-56.101562-56.101562c-1.664063-1.671875-3.976563-2.625-6.335938-2.625-4.945312 0-8.96875 4.023438-8.96875 8.96875 0 2.359375.953125 4.671875 2.625 6.34375l35.03125 35.03125-11.3125 11.3125-51.03125-51.03125c-1.671875-1.671875-3.984375-2.625-6.34375-2.625-4.945312 0-8.96875 4.023438-8.96875 8.96875 0 2.359375.953125 4.671875 2.625 6.34375l51.03125 51.03125-11.3125 11.3125-51.03125-51.03125c-1.671875-1.671875-3.984375-2.625-6.34375-2.625-4.945312 0-8.96875 4.023438-8.96875 8.96875 0 2.359375.953125 4.671875 2.625 6.34375l51.03125 51.03125-11.3125 11.3125-91.03125-91.03125c-1.671875-1.671875-3.984375-2.625-6.34375-2.625-4.945312 0-8.96875 4.023438-8.96875 8.96875 0 2.359375.953125 4.671875 2.625 6.34375l99.03125 99.03125-11.3125 11.3125-42.34375-42.34375-1.375 1.375c-3.015625 3.023438-4.679688 7.039062-4.679688 11.3125s1.664063 8.289062 4.679688 11.3125l36.101562 36.101562c.960938.953126 2.160157 1.664063 3.472657 2.042969l46.023437 13.144531c5.226563 1.496094 10 4.308594 13.832032 8.140626zm17.257812 17.257812 12.6875 12.6875 68.6875-68.6875-12.6875-12.6875zm101.441406-35.9375-8.753906-8.75-68.6875 68.6875 12.160156 12.160156c26.503906-19.136718 48.800782-43.710937 65.28125-72.097656zm31.246094-116.0625c0-28.238281-4.976562-55.679688-14.800781-81.734375-17.144531 15.910156-40.015625 25.734375-65.199219 25.734375-52.9375 0-96-43.0625-96-96 0-25.183594 9.824219-48.054688 25.734375-65.199219-14.421875-5.441406-29.269531-9.359375-44.4375-11.800781 1.757813 3.9375 2.792969 8.265625 2.816406 12.839844l.816407 161.59375c3.414062 1.160156 6.582031 2.992187 9.214843 5.496094 3.878907-8.777344 12.640625-14.929688 22.824219-14.929688 6.574219 0 13.007812 2.664062 17.65625 7.3125l56.101562 56.101562c2.867188 2.867188 4.976563 6.457032 6.105469 10.363282l13.726563 48.046875c.371094 1.296875 1.082031 2.496093 2.035156 3.457031l40.0625 40.0625c14.9375-30.640625 23.34375-65.023438 23.34375-101.34375zm-92-104h4v16h16v-16h4c15.441406 0 28-12.558594 28-28s-12.558594-28-28-28h-24c-6.617188 0-12-5.382812-12-12s5.382812-12 12-12h24c6.617188 0 12 5.382812 12 12v4h16v-4c0-15.441406-12.558594-28-28-28h-4v-16h-16v16h-4c-15.441406 0-28 12.558594-28 28s12.558594 28 28 28h24c6.617188 0 12 5.382812 12 12s-5.382812 12-12 12h-24c-6.617188 0-12-5.382812-12-12v-4h-16v4c0 15.441406 12.558594 28 28 28zm0 0" fill="url(#a)"/></svg>