<svg id="Capa_1" enable-background="new 0 0 513.731 513.731" height="512" viewBox="0 0 513.731 513.731" width="512" xmlns="http://www.w3.org/2000/svg" xmlns:xlink="http://www.w3.org/1999/xlink"><linearGradient id="SVGID_1_" gradientUnits="userSpaceOnUse" x1="207.5" x2="207.5" y1="56.848" y2="456.848"><stop offset=".00000083866" stop-color="#96d1f3"/><stop offset="1" stop-color="#ccfff4"/></linearGradient><linearGradient id="SVGID_2_" gradientUnits="userSpaceOnUse" x1="399" x2="399" y1="194.098" y2="314.098"><stop offset=".00000036422" stop-color="#a8abff"/><stop offset="1" stop-color="#fac8ff"/></linearGradient><linearGradient id="SVGID_3_" gradientUnits="userSpaceOnUse" x1="256.866" x2="256.866" y1="49.348" y2="464.384"><stop offset=".00000011981" stop-color="#174fa3"/><stop offset="1" stop-color="#b044af"/></linearGradient><g><g><circle cx="207.5" cy="256.848" fill="url(#SVGID_1_)" r="200"/><path d="m489 314.098h-180c-8.284 0-15-6.716-15-15v-90c0-8.284 6.716-15 15-15h180c8.284 0 15 6.716 15 15v90c0 8.284-6.716 15-15 15z" fill="url(#SVGID_2_)"/></g><path d="m511.5 299.098v-90c0-12.407-10.094-22.5-22.5-22.5h-86.201c-28.823-80.256-105.485-137.25-195.299-137.25-114.416 0-207.5 93.084-207.5 207.5 0 172.067 197.547 267.757 332.598 165.566 33.574-25.404 59.009-61.042 72.091-100.816h84.311c12.406 0 22.5-10.093 22.5-22.5zm-358.173-226.978c-19.773 17.883-34.051 43.425-43.553 68.231-11.742-6.944-22.804-15.188-33.014-24.655 21.546-19.972 47.653-35.082 76.567-43.576zm-87.173 54.195c11.861 11.058 24.793 20.585 38.569 28.465-9.122 28.646-14.272 60.917-14.94 94.567h-74.623c1.825-47.375 20.847-90.411 50.994-123.032zm-50.994 138.033h74.623c.716 36.089 6.588 70.59 16.985 100.735-13.113 7.296-25.488 16.057-36.909 26.194-32.287-33.051-52.801-77.641-54.699-126.929zm65.627 137.286c9.761-8.547 20.259-16.022 31.342-22.356 9.345 22.638 22.885 45.735 41.198 62.298-27.135-7.972-51.799-21.767-72.54-39.942zm119.213 47.196c-35.833-4.949-60.887-42.972-74.514-76.497 23.161-10.916 48.423-17.13 74.514-18.132zm0-109.637c-27.892.993-54.918 7.508-79.738 19.017-9.439-28.096-14.784-60.203-15.477-93.862h95.215zm0-89.845h-95.215c.641-31.144 5.264-60.961 13.429-87.5 25.331 12.091 53.045 18.914 81.786 19.928zm0-82.581c-27.07-1.03-53.145-7.625-76.913-19.242 3.786-10.116 8.12-19.654 12.986-28.477 17.615-31.944 40.082-50.889 63.927-54.182zm289 34.831c4.136 0 7.5 3.364 7.5 7.5v14.25h-195v-14.25c0-4.136 3.364-7.5 7.5-7.5zm-102.219-15h-68.329c-2.244-11.127-4.985-21.757-8.181-31.814 13.837-7.915 26.825-17.491 38.729-28.612 15.965 17.293 28.884 37.669 37.781 60.426zm-48.385-71.048c-10.252 9.529-21.368 17.821-33.169 24.8-11.144-29.138-26.287-52.585-43.898-68.378 28.913 8.381 55.263 23.384 77.067 43.578zm-123.396-50.679c37.717 5.216 63.534 47.011 76.856 82.682-23.753 11.599-49.807 18.185-76.856 19.214zm0 116.905c28.718-1.013 56.412-7.826 81.727-19.899 2.522 8.183 4.719 16.697 6.56 25.458-9.649 2.535-16.787 11.33-16.787 21.763v40.25h-71.5zm0 82.572h71.5v34.75c0 10.813 7.668 19.866 17.851 22.014-2.513 13.116-5.76 25.528-9.636 37.086-24.813-11.502-51.831-18.013-79.714-19.005v-74.845zm0 184.462v-94.609c26.083 1.001 51.338 7.212 74.492 18.122-17.679 43.586-44.834 72.308-74.492 76.487zm46.854-7.416c18.093-16.473 31.669-39.38 41.037-62.105 11.036 6.31 21.493 13.748 31.218 22.252-20.841 18.17-45.494 31.874-72.255 39.853zm83.216-50.18c-11.399-10.109-23.747-18.847-36.831-26.127 4.664-13.567 8.448-28.125 11.272-43.489h69.321c-9.485 26.513-24.613 50.126-43.762 69.616zm-36.07-84.616c-4.136 0-7.5-3.364-7.5-7.5v-60.75h195v60.75c0 4.136-3.364 7.5-7.5 7.5zm155.5-33.25h15v15h-15zm-31 0h15v15h-15zm-31 0h15v15h-15zm36.028-110.962-22.26-29.291 22.025-32.459 12.412 8.423-11.053 16.289h71.848v15h-70.88l9.852 12.962zm75.203 209.709-22.26 29.291-11.943-9.076 9.852-12.962h-70.88v-15h71.847l-11.053-16.289 12.412-8.423z" fill="url(#SVGID_3_)"/></g></svg>